<?xml version="1.0" standalone="no"?>
<!DOCTYPE svg PUBLIC "-//W3C//DTD SVG 20010904//EN"
 "http://www.w3.org/TR/2001/REC-SVG-20010904/DTD/svg10.dtd">
<svg version="1.0" xmlns="http://www.w3.org/2000/svg"
 width="965.000000pt" height="965.000000pt" viewBox="0 0 965.000000 965.000000"
 preserveAspectRatio="xMidYMid meet">
<metadata>
Created by potrace 1.11, written by Peter Selinger 2001-2013
</metadata>
<g transform="translate(0.000000,965.000000) scale(0.100000,-0.100000)"
fill="#000000" stroke="none">
<path d="M4520 9640 c-1075 -78 -2069 -489 -2855 -1183 -900 -794 -1452 -1835
-1610 -3037 -53 -410 -44 -948 25 -1375 180 -1122 755 -2145 1625 -2889 716
-614 1607 -1005 2555 -1121 570 -70 1213 -28 1770 116 1166 300 2171 1019
2832 2025 929 1414 1043 3238 298 4769 -229 471 -517 877 -890 1259 -541 553
-1179 953 -1909 1196 -344 115 -688 189 -1051 225 -187 19 -617 27 -790 15z
m790 -734 c679 -88 1272 -309 1815 -677 744 -503 1317 -1258 1593 -2099 159
-482 221 -899 209 -1410 -6 -258 -22 -427 -63 -649 -289 -1572 -1489 -2847
-3038 -3231 -373 -92 -674 -125 -1076 -116 -151 3 -313 10 -360 16 -651 79
-1221 281 -1760 623 -526 334 -977 798 -1312 1352 -319 528 -518 1149 -569
1780 -26 323 -1 774 61 1100 250 1316 1135 2435 2361 2983 431 193 889 308
1374 346 126 10 645 -3 765 -18z"/>
<path d="M3140 4730 l0 -2251 953 4 c834 3 969 5 1087 21 801 104 1261 443
1391 1026 73 329 34 679 -102 927 -132 239 -343 398 -623 471 -112 29 -118 34
-56 47 65 14 187 72 263 124 190 131 333 336 382 546 48 203 16 487 -76 683
-139 300 -413 492 -832 586 -271 61 -231 59 -1354 63 l-1033 4 0 -2251z m1825
1490 c226 -26 393 -108 471 -232 58 -91 84 -241 65 -368 -37 -240 -204 -371
-521 -410 -46 -5 -254 -10 -462 -10 l-378 0 0 515 0 515 368 0 c202 0 408 -5
457 -10z m48 -1756 c362 -52 557 -212 585 -482 11 -98 -2 -248 -28 -334 -55
-182 -181 -303 -381 -367 -131 -43 -239 -51 -656 -51 l-393 0 0 625 0 625 381
0 c295 0 405 -4 492 -16z"/>
</g>
</svg>
